<?xml version="1.0" encoding="UTF-8" standalone="no"?>
<!DOCTYPE svg PUBLIC "-//W3C//DTD SVG 1.1//EN" "http://www.w3.org/Graphics/SVG/1.1/DTD/svg11.dtd">
<svg width="100%" height="100%" viewBox="0 0 600 600" version="1.1" xmlns="http://www.w3.org/2000/svg" xmlns:xlink="http://www.w3.org/1999/xlink" xml:space="preserve" xmlns:serif="http://www.serif.com/" style="fill-rule:evenodd;clip-rule:evenodd;stroke-linecap:round;stroke-linejoin:round;stroke-miterlimit:1.5;">
    <rect id="Favicon" x="0" y="0" width="600" height="600" style="fill:none;"/>
    <g id="Favicon1" serif:id="Favicon">
        <rect x="0" y="0" width="600" height="600" style="fill:rgb(27,161,228);"/>
        <path d="M600,0L600,600L0,600L0,0L600,0ZM594.5,5.5L5.5,5.5L5.5,594.5L594.5,594.5L594.5,5.5Z"/>
        <g transform="matrix(1.1104,0,0,1.1104,-33.111,-33.121)">
            <g transform="matrix(1.0818,-0.00345622,0.00345622,1.0818,9.09332,-7.38594)">
                <rect x="51" y="68" width="434" height="434" style="fill:rgb(27,228,194);stroke:black;stroke-width:4.58px;"/>
            </g>
            <g>
                <g>
                    <g transform="matrix(1.0029,0,0,1,-0.614869,21.7012)">
                        <path d="M72.84,199.514L217.963,199.514" style="fill:none;stroke:rgb(33,197,167);stroke-width:4.95px;stroke-linecap:square;"/>
                    </g>
                    <g transform="matrix(1.0029,0,0,1,2.58948,74.2247)">
                        <path d="M68.721,199.514L212,199.514" style="fill:none;stroke:rgb(33,197,167);stroke-width:4.95px;stroke-linecap:square;"/>
                    </g>
                    <g transform="matrix(1.0029,0,0,1,2.58948,126.517)">
                        <path d="M68.811,199.514L212,199.514" style="fill:none;stroke:rgb(33,197,167);stroke-width:4.95px;stroke-linecap:square;"/>
                    </g>
                    <g transform="matrix(1.0029,0,0,1,5.36516,179.272)">
                        <path d="M65.944,199.514L212,199.514" style="fill:none;stroke:rgb(33,197,167);stroke-width:4.95px;stroke-linecap:square;"/>
                    </g>
                </g>
                <g transform="matrix(1,0,0,1,317.52,0)">
                    <g transform="matrix(1.0029,0,0,1,-0.614869,21.7012)">
                        <path d="M58.476,199.514L212,199.514" style="fill:none;stroke:rgb(33,197,167);stroke-width:4.95px;stroke-linecap:square;"/>
                    </g>
                    <g transform="matrix(1.0029,0,0,1,2.58948,74.2247)">
                        <path d="M55.281,199.514L207.014,199.514" style="fill:none;stroke:rgb(33,197,167);stroke-width:4.95px;stroke-linecap:square;"/>
                    </g>
                    <g transform="matrix(1.0029,0,0,1,5.36516,126.748)">
                        <path d="M52.513,199.514L204.247,199.514" style="fill:none;stroke:rgb(33,197,167);stroke-width:4.95px;stroke-linecap:square;"/>
                    </g>
                    <g transform="matrix(1.0029,0,0,1,5.36516,179.272)">
                        <path d="M52.513,199.514L204.247,199.514" style="fill:none;stroke:rgb(33,197,167);stroke-width:4.95px;stroke-linecap:square;"/>
                    </g>
                </g>
                <g transform="matrix(6.12323e-17,-1,1,6.12323e-17,-3.23476,282.48)">
                    <g transform="matrix(1.0029,0,0,1,-0.614869,21.7012)">
                        <path d="M64.927,199.514L212,199.514" style="fill:none;stroke:rgb(33,197,167);stroke-width:4.95px;stroke-linecap:square;"/>
                    </g>
                    <g transform="matrix(1.0029,0,0,1,2.58948,74.2247)">
                        <path d="M58.506,199.514L208.012,199.514" style="fill:none;stroke:rgb(33,197,167);stroke-width:4.95px;stroke-linecap:square;"/>
                    </g>
                    <g transform="matrix(1.0029,0,0,1,5.36516,126.748)">
                        <path d="M55.738,199.514L205.02,199.514" style="fill:none;stroke:rgb(33,197,167);stroke-width:4.95px;stroke-linecap:square;"/>
                    </g>
                    <g transform="matrix(1.0029,0,0,1,5.36516,179.272)">
                        <path d="M55.738,199.514L205.02,199.514" style="fill:none;stroke:rgb(33,197,167);stroke-width:4.95px;stroke-linecap:square;"/>
                    </g>
                </g>
                <g transform="matrix(6.12323e-17,-1,1,6.12323e-17,-3.23476,596.765)">
                    <g transform="matrix(1.0029,0,0,1,-0.614869,21.7012)">
                        <path d="M68.915,199.514L217.963,199.514" style="fill:none;stroke:rgb(33,197,167);stroke-width:4.95px;stroke-linecap:square;"/>
                    </g>
                    <g transform="matrix(1.0029,0,0,1,2.58948,74.2247)">
                        <path d="M64.927,199.514L212,199.514" style="fill:none;stroke:rgb(33,197,167);stroke-width:4.95px;stroke-linecap:square;"/>
                    </g>
                    <g transform="matrix(1.0029,0,0,1,5.36516,126.748)">
                        <path d="M64.927,199.514L212,199.514" style="fill:none;stroke:rgb(33,197,167);stroke-width:4.95px;stroke-linecap:square;"/>
                    </g>
                    <g transform="matrix(1.0029,0,0,1,5.36516,179.272)">
                        <path d="M64.927,199.514L212,199.514" style="fill:none;stroke:rgb(33,197,167);stroke-width:4.95px;stroke-linecap:square;"/>
                    </g>
                </g>
                <rect x="217.98" y="221.215" width="157.57" height="157.57" style="fill:none;stroke:rgb(33,197,167);stroke-width:4.95px;stroke-linecap:square;"/>
            </g>
        </g>
        <g transform="matrix(35.1115,0,0,35.1115,-3898.06,-8422.12)">
            <g transform="matrix(12,0,0,12,120.97,251.325)">
            </g>
            <text x="112.966px" y="251.325px" style="font-family:'Arial-Black', 'Arial Black', sans-serif;font-weight:900;font-size:12px;fill:rgb(27,161,228);stroke:black;stroke-width:0.23px;stroke-linecap:butt;stroke-miterlimit:2;">L</text>
        </g>
        <g transform="matrix(35.1115,0,0,35.1115,-3742.35,-8325.12)">
            <g transform="matrix(12,0,0,12,122.3,251.325)">
            </g>
            <text x="112.966px" y="251.325px" style="font-family:'Arial-Black', 'Arial Black', sans-serif;font-weight:900;font-size:12px;fill:rgb(27,161,228);stroke:black;stroke-width:0.23px;stroke-linecap:butt;stroke-miterlimit:2;">B</text>
        </g>
    </g>
</svg>
